# xmcd CD database file
#
# Track frame offsets:
#	150
#	37015
#	70422
#	109722
#	148745
#	192392
#	242340
#
# Disc length: 3683 seconds
#
# Revision: 0
# Processed by: cddbd v1.4PL0 Copyright (c) Steve Scherf et al.
# Submitted via: CDex 1.51
#
DISCID=630e6107
DTITLE=Terumasa Hino  - D-N-A LIVE
DYEAR=2002
DGENRE=Jazz
TTITLE0=It's There
TTITLE1=Lori
TTITLE2=For Toddlers Only
TTITLE3=Black Jack
TTITLE4=Up Jumped Spring
TTITLE5=Candy
TTITLE6=Autumn Leaves
EXTD=YEAR: 2002
EXTT0=
EXTT1=
EXTT2=
EXTT3=
EXTT4=
EXTT5=
EXTT6=
PLAYORDER=
